<mxfile host="Electron" agent="Mozilla/5.0 (Macintosh; Intel Mac OS X 10_15_7) AppleWebKit/537.36 (KHTML, like Gecko) draw.io/24.7.8 Chrome/128.0.6613.36 Electron/32.0.1 Safari/537.36" version="24.7.8">
  <diagram name="Page-1" id="IFjFr0oD14mKjOrLkYkg">
    <mxGraphModel dx="1306" dy="834" grid="1" gridSize="10" guides="1" tooltips="1" connect="1" arrows="1" fold="1" page="1" pageScale="1" pageWidth="827" pageHeight="1169" math="0" shadow="0">
      <root>
        <mxCell id="0" />
        <mxCell id="1" parent="0" />
        <mxCell id="wHZk7XoFHJyvNjya5gAO-1" value="&lt;b&gt;&lt;font style=&quot;font-size: 14px;&quot;&gt;Acteur&lt;/font&gt;&lt;/b&gt;" style="shape=umlActor;verticalLabelPosition=bottom;verticalAlign=top;html=1;" vertex="1" parent="1">
          <mxGeometry x="100" y="40" width="30" height="60" as="geometry" />
        </mxCell>
        <mxCell id="wHZk7XoFHJyvNjya5gAO-2" value="&lt;b&gt;&lt;font style=&quot;font-size: 14px;&quot;&gt;Cas d&#39;utilisation&lt;/font&gt;&lt;/b&gt;" style="ellipse;whiteSpace=wrap;html=1;" vertex="1" parent="1">
          <mxGeometry x="270" y="35" width="180" height="70" as="geometry" />
        </mxCell>
        <mxCell id="wHZk7XoFHJyvNjya5gAO-3" value="" style="endArrow=none;startArrow=none;endFill=0;startFill=0;endSize=8;html=1;verticalAlign=bottom;labelBackgroundColor=none;strokeWidth=3;rounded=0;" edge="1" parent="1">
          <mxGeometry width="160" relative="1" as="geometry">
            <mxPoint x="35" y="220" as="sourcePoint" />
            <mxPoint x="195" y="220" as="targetPoint" />
          </mxGeometry>
        </mxCell>
        <mxCell id="wHZk7XoFHJyvNjya5gAO-4" value="&lt;b style=&quot;font-size: 14px;&quot;&gt;Association&lt;/b&gt;" style="edgeLabel;html=1;align=center;verticalAlign=middle;resizable=0;points=[];fontSize=14;" vertex="1" connectable="0" parent="wHZk7XoFHJyvNjya5gAO-3">
          <mxGeometry x="-0.4687" y="-2" relative="1" as="geometry">
            <mxPoint x="37" y="48" as="offset" />
          </mxGeometry>
        </mxCell>
        <mxCell id="wHZk7XoFHJyvNjya5gAO-5" value="" style="endArrow=classic;startArrow=none;endFill=1;startFill=0;endSize=8;html=1;verticalAlign=bottom;labelBackgroundColor=none;strokeWidth=3;rounded=0;dashed=1;" edge="1" parent="1">
          <mxGeometry width="160" relative="1" as="geometry">
            <mxPoint x="280" y="220" as="sourcePoint" />
            <mxPoint x="440" y="220" as="targetPoint" />
          </mxGeometry>
        </mxCell>
        <mxCell id="wHZk7XoFHJyvNjya5gAO-6" value="&amp;lt;&amp;lt;&amp;nbsp;include &amp;gt;&amp;gt;" style="edgeLabel;html=1;align=center;verticalAlign=middle;resizable=0;points=[];" vertex="1" connectable="0" parent="wHZk7XoFHJyvNjya5gAO-5">
          <mxGeometry x="-0.4687" y="-2" relative="1" as="geometry">
            <mxPoint x="37" y="18" as="offset" />
          </mxGeometry>
        </mxCell>
        <mxCell id="wHZk7XoFHJyvNjya5gAO-23" value="&lt;b style=&quot;font-size: 14px;&quot;&gt;Inclusion&lt;/b&gt;" style="edgeLabel;html=1;align=center;verticalAlign=middle;resizable=0;points=[];fontSize=14;" vertex="1" connectable="0" parent="wHZk7XoFHJyvNjya5gAO-5">
          <mxGeometry x="-0.8125" y="2" relative="1" as="geometry">
            <mxPoint x="60" y="52" as="offset" />
          </mxGeometry>
        </mxCell>
        <mxCell id="wHZk7XoFHJyvNjya5gAO-7" value="" style="endArrow=classic;startArrow=none;endFill=1;startFill=0;endSize=8;html=1;verticalAlign=bottom;labelBackgroundColor=none;strokeWidth=3;rounded=0;dashed=1;" edge="1" parent="1">
          <mxGeometry width="160" relative="1" as="geometry">
            <mxPoint x="581" y="220" as="sourcePoint" />
            <mxPoint x="741" y="220" as="targetPoint" />
          </mxGeometry>
        </mxCell>
        <mxCell id="wHZk7XoFHJyvNjya5gAO-8" value="&amp;lt;&amp;lt; extend &amp;gt;&amp;gt;" style="edgeLabel;html=1;align=center;verticalAlign=middle;resizable=0;points=[];" vertex="1" connectable="0" parent="wHZk7XoFHJyvNjya5gAO-7">
          <mxGeometry x="-0.4687" y="-2" relative="1" as="geometry">
            <mxPoint x="34" y="18" as="offset" />
          </mxGeometry>
        </mxCell>
        <mxCell id="wHZk7XoFHJyvNjya5gAO-24" value="&lt;b style=&quot;font-size: 14px;&quot;&gt;Extension&lt;/b&gt;" style="edgeLabel;html=1;align=center;verticalAlign=middle;resizable=0;points=[];fontSize=14;" vertex="1" connectable="0" parent="wHZk7XoFHJyvNjya5gAO-7">
          <mxGeometry x="-0.6062" y="1" relative="1" as="geometry">
            <mxPoint x="48" y="51" as="offset" />
          </mxGeometry>
        </mxCell>
        <mxCell id="wHZk7XoFHJyvNjya5gAO-18" value="" style="group" vertex="1" connectable="0" parent="1">
          <mxGeometry x="560" y="35" width="202" height="140" as="geometry" />
        </mxCell>
        <mxCell id="wHZk7XoFHJyvNjya5gAO-9" value="" style="rounded=0;whiteSpace=wrap;html=1;container=0;" vertex="1" parent="wHZk7XoFHJyvNjya5gAO-18">
          <mxGeometry width="202" height="140" as="geometry" />
        </mxCell>
        <mxCell id="wHZk7XoFHJyvNjya5gAO-17" value="" style="group" vertex="1" connectable="0" parent="wHZk7XoFHJyvNjya5gAO-18">
          <mxGeometry x="7" width="156" height="130" as="geometry" />
        </mxCell>
        <mxCell id="wHZk7XoFHJyvNjya5gAO-11" value="" style="ellipse;whiteSpace=wrap;html=1;container=0;" vertex="1" parent="wHZk7XoFHJyvNjya5gAO-17">
          <mxGeometry x="40" y="40" width="116" height="40" as="geometry" />
        </mxCell>
        <mxCell id="wHZk7XoFHJyvNjya5gAO-10" value="" style="ellipse;whiteSpace=wrap;html=1;container=0;" vertex="1" parent="wHZk7XoFHJyvNjya5gAO-17">
          <mxGeometry x="40" y="90" width="116" height="40" as="geometry" />
        </mxCell>
        <mxCell id="wHZk7XoFHJyvNjya5gAO-12" value="&lt;b&gt;&lt;font style=&quot;font-size: 14px;&quot;&gt;Système&lt;/font&gt;&lt;/b&gt;" style="text;html=1;align=center;verticalAlign=middle;whiteSpace=wrap;rounded=0;container=0;" vertex="1" parent="wHZk7XoFHJyvNjya5gAO-17">
          <mxGeometry width="60" height="30" as="geometry" />
        </mxCell>
        <mxCell id="wHZk7XoFHJyvNjya5gAO-21" style="edgeStyle=orthogonalEdgeStyle;rounded=0;orthogonalLoop=1;jettySize=auto;html=1;strokeWidth=3;" edge="1" parent="1" source="wHZk7XoFHJyvNjya5gAO-19" target="wHZk7XoFHJyvNjya5gAO-20">
          <mxGeometry relative="1" as="geometry" />
        </mxCell>
        <mxCell id="wHZk7XoFHJyvNjya5gAO-22" value="&lt;b&gt;&lt;font style=&quot;font-size: 14px;&quot;&gt;Généralisation&lt;/font&gt;&lt;/b&gt;" style="edgeLabel;html=1;align=center;verticalAlign=middle;resizable=0;points=[];" vertex="1" connectable="0" parent="wHZk7XoFHJyvNjya5gAO-21">
          <mxGeometry x="0.2407" y="3" relative="1" as="geometry">
            <mxPoint x="-34" y="23" as="offset" />
          </mxGeometry>
        </mxCell>
        <mxCell id="wHZk7XoFHJyvNjya5gAO-19" value="Acteur" style="shape=umlActor;verticalLabelPosition=bottom;verticalAlign=top;html=1;" vertex="1" parent="1">
          <mxGeometry x="222" y="350" width="30" height="60" as="geometry" />
        </mxCell>
        <mxCell id="wHZk7XoFHJyvNjya5gAO-20" value="Acteur" style="shape=umlActor;verticalLabelPosition=bottom;verticalAlign=top;html=1;" vertex="1" parent="1">
          <mxGeometry x="468" y="350" width="30" height="60" as="geometry" />
        </mxCell>
      </root>
    </mxGraphModel>
  </diagram>
</mxfile>
